<svg version="1.1" id="Layer_1" xmlns="http://www.w3.org/2000/svg" xmlns:xlink="http://www.w3.org/1999/xlink" x="0px" y="0px"
	 width="100%" viewBox="0 0 235 236" enable-background="new 0 0 235 236" xml:space="preserve">
<path fill="#000000" opacity="1.000000" stroke="none" 
	d="
M236.000000,141.000000 
	C236.000000,172.930893 236.000000,204.861786 236.000000,237.000000 
	C200.646042,237.000000 165.291687,237.000000 129.647934,236.633423 
	C131.944473,235.862732 134.530380,235.458618 137.536743,235.035706 
	C141.304840,234.292664 144.652496,233.568451 148.392120,232.911591 
	C152.536713,231.698532 156.289307,230.418106 160.419449,229.083954 
	C164.211899,227.399734 167.626801,225.769226 171.405182,224.076019 
	C175.511856,221.957703 179.255066,219.902054 183.336243,217.813385 
	C187.463135,214.564255 191.252045,211.348129 195.387695,208.071487 
	C201.158264,202.338913 207.001602,197.006317 211.921555,190.926483 
	C223.363266,176.787384 230.402283,160.489319 234.081924,142.699402 
	C234.220520,142.029358 235.338455,141.561890 236.000000,141.000000 
z"/>
<path fill="#000000" opacity="1.000000" stroke="none" 
	d="
M137.000000,1.000000 
	C169.925797,1.000000 202.851608,1.000000 236.000000,1.000000 
	C236.000000,32.687214 236.000000,64.374947 235.643585,96.761681 
	C234.474258,95.308250 233.661331,93.155823 232.916275,90.616852 
	C232.036850,87.472710 231.089554,84.715118 230.085175,81.572052 
	C228.966003,78.124290 227.903931,75.061989 226.800476,71.651428 
	C225.212952,68.518425 223.666809,65.733696 222.064972,62.591976 
	C220.047226,59.139565 218.085159,56.044140 215.975281,52.636627 
	C213.591309,49.531731 211.355164,46.738911 208.974487,43.633854 
	C206.259369,40.529606 203.688797,37.737598 200.975769,34.637756 
	C198.238815,32.179268 195.644302,30.028612 192.910522,27.569908 
	C190.199493,25.469233 187.627716,23.676601 184.893951,21.577230 
	C180.171097,18.804356 175.610245,16.338223 170.878326,13.559391 
	C166.606186,11.550728 162.505127,9.854761 158.061905,8.059572 
	C153.616043,6.693938 149.512344,5.427525 145.035553,4.087756 
	C142.779144,3.672424 140.848618,3.482311 139.034149,2.918654 
	C138.234589,2.670274 137.670822,1.662825 137.000000,1.000000 
z"/>
<path fill="#000000" opacity="1.000000" stroke="none" 
	d="
M0.999999,97.000000 
	C1.000000,65.071945 1.000000,33.143890 1.000000,1.000000 
	C33.687244,1.000000 66.374962,1.000000 99.820648,1.292229 
	C99.718727,2.108772 98.858849,2.633085 97.587517,3.087281 
	C92.436371,4.299054 87.696686,5.580943 82.564659,6.919297 
	C77.434334,8.938486 72.696350,10.901212 67.592201,12.927214 
	C61.477600,16.380278 55.729160,19.770067 49.719131,23.128155 
	C49.268131,23.380188 49.078724,23.663923 48.917343,23.956066 
	C48.945374,23.964476 48.921951,23.910767 48.605598,24.049929 
	C40.518902,31.824282 32.128807,38.934525 25.117174,47.212376 
	C13.323782,61.135517 6.536685,77.672440 2.909326,95.524597 
	C2.788124,96.121086 1.659194,96.512817 0.999999,97.000000 
z"/>
<path fill="#000000" opacity="1.000000" stroke="none" 
	d="
M100.000000,237.000000 
	C67.074196,237.000000 34.148392,237.000000 1.000000,237.000000 
	C1.000000,205.312790 1.000000,173.625046 1.291517,141.177643 
	C2.107609,141.277725 2.632183,142.137497 3.084626,143.396912 
	C4.298384,147.881195 5.584272,151.965851 6.921130,156.438568 
	C8.269578,160.232178 9.567056,163.637726 10.925629,167.409271 
	C13.495649,172.412506 16.004576,177.049744 18.682400,181.976868 
	C21.886322,186.221832 24.921350,190.176895 28.091282,194.442902 
	C31.469959,198.212158 34.713734,201.670502 38.091774,205.436768 
	C40.774605,207.846558 43.323170,209.948395 46.033600,212.362793 
	C50.089684,215.134872 53.983906,217.594391 58.048538,220.371246 
	C62.799442,222.835693 67.379936,224.982834 72.141907,227.447845 
	C74.864655,228.548721 77.405922,229.331711 80.137970,230.440247 
	C83.539093,231.553909 86.749443,232.342056 90.167877,233.461639 
	C93.250885,234.143478 96.125801,234.493881 99.338303,235.024399 
	C99.783920,235.803009 99.891960,236.401505 100.000000,237.000000 
z"/>
<path fill="#F3957F" opacity="1.000000" stroke="none" 
	d="
M0.999999,97.458069 
	C1.659194,96.512817 2.788124,96.121086 2.909326,95.524597 
	C6.536685,77.672440 13.323782,61.135517 25.117174,47.212376 
	C32.128807,38.934525 40.518902,31.824282 48.621391,24.433292 
	C47.342239,29.225210 45.730949,33.772926 43.952282,38.596733 
	C40.714718,42.142445 37.514217,45.300282 34.597111,48.701202 
	C22.549253,62.747265 15.302073,79.173897 10.588854,97.044273 
	C9.210535,98.285728 8.165420,99.470512 7.146262,100.677231 
	C5.090040,103.111847 3.047930,105.558380 1.000001,108.000000 
	C1.000000,104.638710 1.000000,101.277428 0.999999,97.458069 
z"/>
<path fill="#726BD0" opacity="1.000000" stroke="none" 
	d="
M236.000000,140.571533 
	C235.338455,141.561890 234.220520,142.029358 234.081924,142.699402 
	C230.402283,160.489319 223.363266,176.787384 211.921555,190.926483 
	C207.001602,197.006317 201.158264,202.338913 195.381973,207.685165 
	C196.507538,203.929199 198.106903,200.543854 199.398758,197.044968 
	C199.860336,195.794846 199.577774,194.270004 199.779572,192.556702 
	C212.277145,178.605927 220.227783,162.621872 225.453201,144.955170 
	C227.366745,142.932938 228.772308,140.789185 230.559097,139.033356 
	C232.153915,137.466232 234.169891,136.327682 236.000000,135.000000 
	C236.000000,136.714355 236.000000,138.428711 236.000000,140.571533 
z"/>
<path fill="#F18C82" opacity="1.000000" stroke="none" 
	d="
M1.000001,108.468399 
	C3.047930,105.558380 5.090040,103.111847 7.146262,100.677231 
	C8.165420,99.470512 9.210535,98.285728 10.628469,97.468895 
	C10.287963,105.230362 9.562901,112.613960 8.499874,120.049744 
	C5.774604,122.734619 3.387301,125.367310 0.999999,128.000000 
	C1.000000,121.645599 1.000000,115.291206 1.000001,108.468399 
z"/>
<path fill="#7B65CB" opacity="1.000000" stroke="none" 
	d="
M236.000000,134.531723 
	C234.169891,136.327682 232.153915,137.466232 230.559097,139.033356 
	C228.772308,140.789185 227.366745,142.932938 225.433380,144.550507 
	C226.086746,137.461304 227.101990,130.729462 228.447388,123.934006 
	C231.185028,121.246918 233.592514,118.623459 236.000000,116.000000 
	C236.000000,122.021149 236.000000,128.042297 236.000000,134.531723 
z"/>
<path fill="#EC708C" opacity="1.000000" stroke="none" 
	d="
M97.998970,3.157398 
	C98.858849,2.633085 99.718727,2.108772 100.289307,1.292229 
	C104.689255,1.000000 109.378510,1.000000 114.529205,1.375749 
	C114.324265,4.328749 113.657867,6.906000 112.554817,9.603317 
	C106.743790,10.378737 101.369415,11.034090 95.997055,11.315559 
	C96.665695,8.346916 97.332329,5.752157 97.998970,3.157398 
z"/>
<path fill="#F08485" opacity="1.000000" stroke="none" 
	d="
M0.999999,128.463181 
	C3.387301,125.367310 5.774604,122.734619 8.572800,120.496262 
	C9.366869,126.249374 9.750045,131.608139 9.820896,137.110382 
	C7.391303,139.168320 5.274033,141.082794 3.156760,142.997269 
	C2.632183,142.137497 2.107609,141.277725 1.291517,140.708984 
	C1.000000,136.975449 1.000000,132.950912 0.999999,128.463181 
z"/>
<path fill="#E95996" opacity="1.000000" stroke="none" 
	d="
M136.555832,1.000000 
	C137.670822,1.662825 138.234589,2.670274 139.034149,2.918654 
	C140.848618,3.482311 142.779144,3.672424 144.918457,4.503146 
	C144.449936,7.317959 143.725433,9.644026 142.583618,12.007151 
	C137.113281,11.262940 132.060257,10.481672 127.017639,9.332892 
	C127.685356,6.310253 128.342682,3.655126 129.000000,1.000000 
	C131.370560,1.000000 133.741104,1.000000 136.555832,1.000000 
z"/>
<path fill="#A253BD" opacity="1.000000" stroke="none" 
	d="
M137.116302,235.054520 
	C134.530380,235.458618 131.944473,235.862732 129.179276,236.633423 
	C126.629440,237.000000 124.258888,237.000000 121.481415,236.646317 
	C122.052734,233.697144 123.030960,231.101639 124.446312,228.387634 
	C129.580933,227.812408 134.278442,227.355667 138.947571,227.260712 
	C138.318237,230.099823 137.717270,232.577179 137.116302,235.054520 
z"/>
<path fill="#E2618C" opacity="1.000000" stroke="none" 
	d="
M128.535355,1.000000 
	C128.342682,3.655126 127.685356,6.310253 126.556015,9.396040 
	C121.719818,9.712217 117.355644,9.597734 112.991478,9.483251 
	C113.657867,6.906000 114.324265,4.328749 114.995331,1.375749 
	C119.356903,1.000000 123.713806,1.000000 128.535355,1.000000 
z"/>
<path fill="#8563CB" opacity="1.000000" stroke="none" 
	d="
M236.000000,115.535355 
	C233.592514,118.623459 231.185028,121.246918 228.387634,123.470810 
	C227.914017,118.068596 227.830338,113.065948 228.103470,108.007156 
	C230.973526,105.967346 233.486755,103.983673 236.000000,102.000000 
	C236.000000,106.356903 236.000000,110.713799 236.000000,115.535355 
z"/>
<path fill="#B648B3" opacity="1.000000" stroke="none" 
	d="
M100.458069,237.000000 
	C99.891960,236.401505 99.783920,235.803009 99.388855,234.669098 
	C100.132095,231.890427 101.162354,229.647156 102.640930,227.421722 
	C106.389931,227.794846 109.690636,228.150146 112.989670,228.869720 
	C112.325333,231.822678 111.662666,234.411331 111.000000,237.000000 
	C107.638710,237.000000 104.277428,237.000000 100.458069,237.000000 
z"/>
<path fill="#8A5EC5" opacity="1.000000" stroke="none" 
	d="
M236.000000,101.583336 
	C233.486755,103.983673 230.973526,105.967346 227.907867,107.665024 
	C226.922791,103.919556 226.490143,100.460083 226.401337,96.955383 
	C228.779587,94.941231 230.813995,92.972321 232.848404,91.003403 
	C233.661331,93.155823 234.474258,95.308250 235.643585,97.230339 
	C236.000000,98.388893 236.000000,99.777779 236.000000,101.583336 
z"/>
<path fill="#A549AE" opacity="1.000000" stroke="none" 
	d="
M111.454117,237.000000 
	C111.662666,234.411331 112.325333,231.822678 113.440903,228.781006 
	C117.265602,228.387390 120.637398,228.446762 124.009186,228.506134 
	C123.030960,231.101639 122.052734,233.697144 121.037247,236.646317 
	C117.969406,237.000000 114.938812,237.000000 111.454117,237.000000 
z"/>
<path fill="#7767CC" opacity="1.000000" stroke="none" 
	d="
M199.634857,192.870544 
	C199.577774,194.270004 199.860336,195.794846 199.398758,197.044968 
	C198.106903,200.543854 196.507538,203.929199 195.035233,207.745667 
	C191.252045,211.348129 187.463135,214.564255 183.337799,217.429657 
	C184.317703,212.999756 185.634033,208.920593 187.098038,204.547394 
	C191.375427,200.459106 195.505142,196.664825 199.634857,192.870544 
z"/>
<path fill="#7E64C9" opacity="1.000000" stroke="none" 
	d="
M186.950348,204.841415 
	C185.634033,208.920593 184.317703,212.999756 182.999817,217.462662 
	C179.255066,219.902054 175.511856,221.957703 171.399353,223.685425 
	C171.996979,220.166733 172.963898,216.975983 174.112885,213.508392 
	C178.513428,210.434845 182.731888,207.638138 186.950348,204.841415 
z"/>
<path fill="#855FC5" opacity="1.000000" stroke="none" 
	d="
M173.930817,213.785217 
	C172.963898,216.975983 171.996979,220.166733 171.035889,223.748108 
	C167.626801,225.769226 164.211899,227.399734 160.408813,228.675476 
	C160.666122,225.494110 161.311584,222.667542 162.172562,219.577271 
	C166.235657,217.470779 170.083237,215.628006 173.930817,213.785217 
z"/>
<path fill="#9658C0" opacity="1.000000" stroke="none" 
	d="
M137.536743,235.035706 
	C137.717270,232.577179 138.318237,230.099823 139.245819,227.032837 
	C143.375549,225.604370 147.178711,224.765549 150.947601,224.295776 
	C149.942291,227.391312 148.971222,230.117767 148.000137,232.844238 
	C144.652496,233.568451 141.304840,234.292664 137.536743,235.035706 
z"/>
<path fill="#8E5CC3" opacity="1.000000" stroke="none" 
	d="
M148.392120,232.911591 
	C148.971222,230.117767 149.942291,227.391312 151.209534,224.054596 
	C154.989502,222.243210 158.473267,221.042084 161.957047,219.840958 
	C161.311584,222.667542 160.666122,225.494110 160.031281,228.729187 
	C156.289307,230.418106 152.536713,231.698532 148.392120,232.911591 
z"/>
<path fill="#E037A1" opacity="1.000000" stroke="none" 
	d="
M171.049408,13.872086 
	C175.610245,16.338223 180.171097,18.804356 184.744476,21.913563 
	C183.267776,24.500856 181.778549,26.445078 179.997208,28.248299 
	C175.799454,25.753088 171.893799,23.398882 167.997192,20.675343 
	C169.020599,18.161366 170.035004,16.016724 171.049408,13.872086 
z"/>
<path fill="#E54A9A" opacity="1.000000" stroke="none" 
	d="
M143.000931,11.970093 
	C143.725433,9.644026 144.449936,7.317959 145.291534,4.576503 
	C149.512344,5.427525 153.616043,6.693938 157.946945,8.471486 
	C157.450500,11.270121 156.726852,13.557619 155.626984,15.846103 
	C151.167496,14.554756 147.084213,13.262425 143.000931,11.970093 
z"/>
<path fill="#E33F9E" opacity="1.000000" stroke="none" 
	d="
M156.003204,15.845119 
	C156.726852,13.557619 157.450500,11.270121 158.289108,8.570708 
	C162.505127,9.854761 166.606186,11.550728 170.878326,13.559389 
	C170.035004,16.016724 169.020599,18.161366 167.635986,20.636660 
	C163.511581,19.259914 159.757385,17.552517 156.003204,15.845119 
z"/>
<path fill="#B648B3" opacity="1.000000" stroke="none" 
	d="
M209.119034,43.946098 
	C211.355164,46.738911 213.591309,49.531731 215.669907,52.786858 
	C213.776581,55.162437 212.040787,57.075703 210.066971,58.734650 
	C207.554092,55.320343 205.279266,52.160358 203.345520,48.959969 
	C205.497421,47.261745 207.308228,45.603920 209.119034,43.946098 
z"/>
<path fill="#C143AF" opacity="1.000000" stroke="none" 
	d="
M208.974487,43.633858 
	C207.308228,45.603920 205.497421,47.261745 203.060303,48.794441 
	C200.473694,46.410477 198.513382,44.151642 196.708817,41.523975 
	C198.282440,39.085293 199.700333,37.015442 201.118225,34.945587 
	C203.688797,37.737598 206.259369,40.529606 208.974487,43.633858 
z"/>
<path fill="#AB4EB8" opacity="1.000000" stroke="none" 
	d="
M210.304993,58.988960 
	C212.040787,57.075703 213.776581,55.162437 215.817749,53.098942 
	C218.085159,56.044140 220.047226,59.139565 221.750519,62.743931 
	C219.600525,64.853706 217.709305,66.454536 215.548828,67.860291 
	C213.621399,64.773132 211.963196,61.881042 210.304993,58.988960 
z"/>
<path fill="#CD3EAB" opacity="1.000000" stroke="none" 
	d="
M200.975769,34.637756 
	C199.700333,37.015442 198.282440,39.085293 196.413956,41.329437 
	C193.265015,39.018013 190.566666,36.532295 188.212769,33.987289 
	C190.054718,31.911320 191.552261,29.894636 193.049789,27.877953 
	C195.644302,30.028612 198.238815,32.179268 200.975769,34.637756 
z"/>
<path fill="#A253BD" opacity="1.000000" stroke="none" 
	d="
M215.818069,68.055374 
	C217.709305,66.454536 219.600525,64.853706 221.806213,63.100918 
	C223.666809,65.733696 225.212952,68.518425 226.465057,71.701462 
	C224.191971,74.064644 222.212952,76.029510 220.027069,77.690109 
	C218.486160,74.275688 217.152115,71.165527 215.818069,68.055374 
z"/>
<path fill="#9658C0" opacity="1.000000" stroke="none" 
	d="
M220.233948,77.994385 
	C222.212952,76.029510 224.191971,74.064644 226.506409,72.049736 
	C227.903931,75.061989 228.966003,78.124290 229.726013,81.635208 
	C227.435501,83.784286 225.447052,85.484741 223.280380,86.893768 
	C222.146072,83.733032 221.190002,80.863708 220.233948,77.994385 
z"/>
<path fill="#8F59BF" opacity="1.000000" stroke="none" 
	d="
M223.458618,87.185188 
	C225.447052,85.484741 227.435501,83.784286 229.783112,82.020676 
	C231.089554,84.715118 232.036850,87.472710 232.916275,90.616852 
	C230.813995,92.972321 228.779587,94.941231 226.233398,96.614235 
	C224.967285,93.273949 224.212936,90.229561 223.458618,87.185188 
z"/>
<path fill="#D839A7" opacity="1.000000" stroke="none" 
	d="
M192.910522,27.569908 
	C191.552261,29.894636 190.054718,31.911320 187.903122,33.872993 
	C184.929138,32.008427 182.609238,30.198866 180.289322,28.389303 
	C181.778549,26.445078 183.267776,24.500856 184.906479,22.220303 
	C187.627716,23.676601 190.199493,25.469233 192.910522,27.569908 
z"/>
<path fill="#F18C82" opacity="1.000000" stroke="none" 
	d="
M44.119659,38.320644 
	C45.730949,33.772926 47.342239,29.225210 48.937740,24.294128 
	C48.921951,23.910767 48.945374,23.964476 49.138763,23.885208 
	C49.620682,23.663200 49.836868,23.447840 49.980717,23.159857 
	C55.729160,19.770067 61.477600,16.380278 67.569000,13.296341 
	C66.604553,16.998835 65.297142,20.395477 63.713493,24.002829 
	C56.998055,28.915909 50.558857,33.618279 44.119659,38.320644 
z"/>
<path fill="#ED8284" opacity="1.000000" stroke="none" 
	d="
M63.989727,23.792118 
	C65.297142,20.395477 66.604553,16.998835 67.935165,13.233066 
	C72.696350,10.901212 77.434334,8.938486 82.570351,7.311607 
	C82.311600,10.388156 81.654823,13.128858 80.646118,15.976917 
	C74.859367,18.653557 69.424545,21.222837 63.989727,23.792118 
z"/>
<path fill="#ED7A88" opacity="1.000000" stroke="none" 
	d="
M80.998055,15.869560 
	C81.654823,13.128858 82.311600,10.388156 82.962685,7.255143 
	C87.696686,5.580943 92.436371,4.299054 97.587517,3.087281 
	C97.332329,5.752157 96.665695,8.346916 95.622566,11.452684 
	C90.496735,13.265649 85.747398,14.567606 80.998055,15.869560 
z"/>
<path fill="#F3957F" opacity="1.000000" stroke="none" 
	d="
M49.719131,23.128155 
	C49.836868,23.447840 49.620682,23.663200 49.110733,23.876799 
	C49.078724,23.663923 49.268131,23.380188 49.719131,23.128155 
z"/>
<path fill="#E86191" opacity="1.000000" stroke="none" 
	d="
M27.956383,194.131958 
	C24.921350,190.176895 21.886322,186.221832 18.900928,181.639832 
	C20.655605,179.002457 22.360645,176.991974 24.352058,175.158325 
	C27.125893,179.144608 29.613352,182.954086 31.952232,187.085510 
	C30.521231,189.648972 29.238810,191.890457 27.956383,194.131958 
z"/>
<path fill="#EC6C8E" opacity="1.000000" stroke="none" 
	d="
M24.065685,174.981506 
	C22.360645,176.991974 20.655605,179.002457 18.732035,181.349945 
	C16.004576,177.049744 13.495649,172.412506 11.283266,167.361389 
	C13.697619,165.631821 15.815430,164.316162 18.161758,163.270355 
	C20.282078,167.353989 22.173882,171.167755 24.065685,174.981506 
z"/>
<path fill="#E75596" opacity="1.000000" stroke="none" 
	d="
M28.091286,194.442902 
	C29.238810,191.890457 30.521231,189.648972 32.250515,187.250366 
	C35.486023,190.336227 38.274670,193.579163 41.013577,197.192001 
	C39.961723,200.084198 38.959610,202.606522 37.957500,205.128830 
	C34.713734,201.670502 31.469959,198.212158 28.091286,194.442902 
z"/>
<path fill="#E037A1" opacity="1.000000" stroke="none" 
	d="
M71.960419,227.129974 
	C67.379936,224.982834 62.799442,222.835693 58.329048,220.178833 
	C59.618912,217.473740 60.798679,215.278397 62.325478,213.136215 
	C66.825806,215.441803 70.979103,217.694229 74.840134,220.149216 
	C73.685379,222.611176 72.822899,224.870575 71.960419,227.129974 
z"/>
<path fill="#ED7A88" opacity="1.000000" stroke="none" 
	d="
M3.084629,143.396912 
	C5.274033,141.082794 7.391303,139.168320 10.039625,137.417816 
	C11.562072,141.997559 12.553467,146.413330 13.171124,150.894592 
	C10.821645,152.656891 8.845903,154.353699 6.870161,156.050491 
	C5.584272,151.965851 4.298384,147.881195 3.084629,143.396912 
z"/>
<path fill="#E54A9A" opacity="1.000000" stroke="none" 
	d="
M38.091766,205.436768 
	C38.959610,202.606522 39.961723,200.084198 41.322731,197.332184 
	C45.294044,200.315292 48.906460,203.528107 52.178535,206.897095 
	C49.849377,208.718933 47.860561,210.384598 45.871742,212.050247 
	C43.323170,209.948395 40.774605,207.846558 38.091766,205.436768 
z"/>
<path fill="#E33F9E" opacity="1.000000" stroke="none" 
	d="
M46.033604,212.362793 
	C47.860561,210.384598 49.849377,208.718933 52.494068,206.985931 
	C56.092781,208.973419 59.035614,211.028229 61.978447,213.083054 
	C60.798679,215.278397 59.618912,217.473740 58.158638,219.861496 
	C53.983906,217.594391 50.089684,215.134872 46.033604,212.362793 
z"/>
<path fill="#EA7489" opacity="1.000000" stroke="none" 
	d="
M6.921130,156.438568 
	C8.845903,154.353699 10.821645,152.656891 13.356604,151.186539 
	C15.254960,155.275482 16.594099,159.137985 17.933239,163.000488 
	C15.815430,164.316162 13.697619,165.631821 11.222172,166.995377 
	C9.567056,163.637726 8.269578,160.232178 6.921130,156.438568 
z"/>
<path fill="#CD3EAB" opacity="1.000000" stroke="none" 
	d="
M89.959785,233.130188 
	C86.749443,232.342056 83.539093,231.553909 80.279572,230.117889 
	C81.152382,227.351593 82.074371,225.233154 83.371933,223.039948 
	C86.556213,223.796371 89.364906,224.627563 92.127289,225.868011 
	C91.373909,228.561584 90.666847,230.845886 89.959785,233.130188 
z"/>
<path fill="#C143AF" opacity="1.000000" stroke="none" 
	d="
M90.167877,233.461639 
	C90.666847,230.845886 91.373909,228.561584 92.535065,225.915970 
	C96.056976,226.171066 99.124794,226.787491 102.192619,227.403900 
	C101.162354,229.647156 100.132095,231.890427 99.051270,234.488983 
	C96.125801,234.493881 93.250885,234.143478 90.167877,233.461639 
z"/>
<path fill="#D839A7" opacity="1.000000" stroke="none" 
	d="
M82.996353,223.114731 
	C82.074371,225.233154 81.152382,227.351593 80.088791,229.792358 
	C77.405922,229.331711 74.864655,228.548721 72.141899,227.447845 
	C72.822899,224.870575 73.685379,222.611176 75.200333,220.156509 
	C78.233994,221.012405 80.615173,222.063568 82.996353,223.114731 
z"/>
<path fill="#010101" opacity="1.000000" stroke="none" 
	d="
M83.371941,223.039948 
	C80.615173,222.063568 78.233994,221.012405 75.492607,219.953949 
	C70.979103,217.694229 66.825806,215.441803 62.325478,213.136215 
	C59.035614,211.028229 56.092781,208.973419 52.834412,206.829773 
	C48.906460,203.528107 45.294044,200.315292 41.372475,196.962280 
	C38.274670,193.579163 35.486023,190.336227 32.399094,186.928421 
	C29.613352,182.954086 27.125893,179.144608 24.352058,175.158325 
	C22.173882,171.167755 20.282078,167.353989 18.161757,163.270355 
	C16.594099,159.137985 15.254960,155.275482 13.730341,151.121033 
	C12.553467,146.413330 11.562072,141.997559 10.351949,137.274353 
	C9.750045,131.608139 9.366869,126.249374 8.910766,120.444077 
	C9.562901,112.613960 10.287963,105.230362 10.973411,97.422150 
	C15.302073,79.173897 22.549253,62.747265 34.597111,48.701202 
	C37.514217,45.300282 40.714718,42.142445 43.952278,38.596733 
	C50.558857,33.618279 56.998055,28.915909 63.713493,24.002831 
	C69.424545,21.222837 74.859367,18.653557 80.646118,15.976919 
	C85.747398,14.567606 90.496735,13.265649 95.620560,11.826569 
	C101.369415,11.034090 106.743790,10.378737 112.554817,9.603317 
	C117.355644,9.597734 121.719818,9.712217 126.545616,9.763554 
	C132.060257,10.481672 137.113281,11.262940 142.583618,12.007151 
	C147.084213,13.262425 151.167496,14.554756 155.626984,15.846104 
	C159.757385,17.552517 163.511581,19.259914 167.626953,21.005995 
	C171.893799,23.398882 175.799454,25.753088 179.997208,28.248299 
	C182.609238,30.198866 184.929138,32.008427 187.558685,33.932281 
	C190.566666,36.532295 193.265015,39.018013 196.258209,41.698265 
	C198.513382,44.151642 200.473694,46.410477 202.719208,48.834843 
	C205.279266,52.160358 207.554092,55.320343 210.066956,58.734642 
	C211.963196,61.881042 213.621399,64.773132 215.548828,67.860291 
	C217.152115,71.165527 218.486160,74.275688 220.027069,77.690117 
	C221.190002,80.863708 222.146072,83.733032 223.280365,86.893768 
	C224.212936,90.229561 224.967285,93.273949 225.889557,96.659470 
	C226.490143,100.460083 226.922791,103.919556 227.551056,107.721161 
	C227.830338,113.065948 227.914017,118.068596 228.057465,123.534439 
	C227.101990,130.729462 226.086746,137.461304 225.091309,144.597794 
	C220.227783,162.621872 212.277145,178.605927 199.779572,192.556717 
	C195.505142,196.664825 191.375427,200.459106 187.098022,204.547394 
	C182.731888,207.638138 178.513428,210.434845 174.112885,213.508392 
	C170.083237,215.628006 166.235657,217.470779 162.172562,219.577271 
	C158.473267,221.042084 154.989502,222.243210 151.243790,223.685532 
	C147.178711,224.765549 143.375549,225.604370 139.274170,226.671066 
	C134.278442,227.355667 129.580933,227.812408 124.446312,228.387634 
	C120.637398,228.446762 117.265602,228.387390 113.442574,228.416733 
	C109.690636,228.150146 106.389931,227.794846 102.640930,227.421722 
	C99.124794,226.787491 96.056976,226.171066 92.581375,225.506699 
	C89.364906,224.627563 86.556213,223.796371 83.371941,223.039948 
M148.212433,135.230286 
	C147.109955,135.089310 146.007477,134.948318 144.904999,134.807327 
	C144.559082,135.159256 144.213165,135.511169 143.867249,135.863083 
	C145.398590,137.844482 146.532684,140.670135 148.549744,141.619263 
	C152.004166,143.244705 155.491058,144.120728 159.146591,140.157410 
	C168.511383,130.004105 178.639160,120.557961 188.239151,110.614044 
	C189.511230,109.296387 190.358414,106.512566 189.927338,104.773354 
	C186.413818,90.597763 182.628052,76.487038 178.676285,62.426510 
	C178.256805,60.934048 176.441025,59.179340 174.930801,58.749966 
	C160.719711,54.709591 146.455048,50.849197 132.139282,47.197880 
	C130.629883,46.812901 128.182495,47.578979 127.034492,48.697792 
	C116.541084,58.924332 106.180794,69.290627 95.967155,79.796471 
	C94.889778,80.904663 94.291168,83.351227 94.675781,84.872047 
	C98.298988,99.198647 102.134445,113.472778 106.078087,127.715126 
	C106.437004,129.011353 107.775414,130.590408 109.002594,130.994431 
	C113.812813,132.578125 118.760857,133.743195 123.757477,135.090698 
	C124.078850,129.824661 121.726494,127.412369 116.998459,126.978706 
	C113.097183,126.620872 110.604370,124.736473 110.290543,120.513145 
	C110.193947,119.213173 109.627029,117.949585 109.288521,116.665901 
	C106.763153,107.089165 104.241074,97.511559 101.525826,87.204941 
	C114.303734,90.631256 126.274246,93.775810 138.180695,97.146637 
	C139.234207,97.444901 140.299194,99.102463 140.632584,100.326508 
	C143.729385,111.696518 146.666840,123.109924 149.227142,134.809784 
	C149.100220,134.927032 148.973297,135.044266 148.212433,135.230286 
M89.208214,102.704651 
	C90.113098,102.827637 91.017990,102.950630 91.922874,103.073624 
	C92.271759,102.681717 92.620644,102.289810 92.969528,101.897903 
	C91.417496,99.951057 90.248627,97.206123 88.227730,96.235886 
	C84.805473,94.592850 81.375206,93.611420 77.711411,97.595284 
	C68.470604,107.643387 58.619808,117.140587 48.806213,126.644562 
	C46.428894,128.946869 46.009727,130.883804 46.894272,134.003265 
	C50.745098,147.583710 54.356407,161.233475 57.905163,174.896912 
	C58.560635,177.420639 59.571522,178.689133 62.284882,179.381302 
	C76.283195,182.952301 90.181961,186.914093 104.184921,190.465652 
	C105.859650,190.890427 108.550003,190.263031 109.764755,189.086151 
	C120.294708,178.884415 130.652985,168.502029 140.876038,157.992142 
	C141.940323,156.897980 142.488556,154.454865 142.105698,152.931900 
	C138.542175,138.756088 134.752670,124.636490 130.925507,110.528580 
	C130.575424,109.238098 129.746109,107.407173 128.734055,107.079689 
	C123.618584,105.424400 118.368950,104.183754 113.066948,102.771210 
	C112.736816,108.356651 115.568970,110.420372 120.064110,110.927200 
	C123.748802,111.342651 125.729401,113.061821 126.477737,117.031685 
	C127.644348,123.220497 129.605026,129.259689 131.230667,135.361893 
	C132.528595,140.233902 133.828690,145.105347 135.296158,150.608398 
	C122.693756,147.247375 110.970512,144.196854 99.316147,140.902649 
	C98.062134,140.548203 96.620872,138.940231 96.261017,137.638733 
	C93.119720,126.277672 90.205101,114.853935 87.841934,103.060455 
	C88.027618,102.902916 88.213303,102.745384 89.208214,102.704651 
z"/>
<path fill="#F4F4F4" opacity="1.000000" stroke="none" 
	d="
M87.223183,103.448799 
	C90.205101,114.853935 93.119720,126.277672 96.261017,137.638733 
	C96.620872,138.940231 98.062134,140.548203 99.316147,140.902649 
	C110.970512,144.196854 122.693756,147.247375 135.296158,150.608398 
	C133.828690,145.105347 132.528595,140.233902 131.230667,135.361893 
	C129.605026,129.259689 127.644348,123.220497 126.477737,117.031685 
	C125.729401,113.061821 123.748802,111.342651 120.064110,110.927200 
	C115.568970,110.420372 112.736816,108.356651 113.066948,102.771210 
	C118.368950,104.183754 123.618584,105.424400 128.734055,107.079689 
	C129.746109,107.407173 130.575424,109.238098 130.925507,110.528580 
	C134.752670,124.636490 138.542175,138.756088 142.105698,152.931900 
	C142.488556,154.454865 141.940323,156.897980 140.876038,157.992142 
	C130.652985,168.502029 120.294708,178.884415 109.764755,189.086151 
	C108.550003,190.263031 105.859650,190.890427 104.184921,190.465652 
	C90.181961,186.914093 76.283195,182.952301 62.284882,179.381302 
	C59.571522,178.689133 58.560635,177.420639 57.905163,174.896912 
	C54.356407,161.233475 50.745098,147.583710 46.894272,134.003265 
	C46.009727,130.883804 46.428894,128.946869 48.806213,126.644562 
	C58.619808,117.140587 68.470604,107.643387 77.711411,97.595284 
	C81.375206,93.611420 84.805473,94.592850 88.227730,96.235886 
	C90.248627,97.206123 91.417496,99.951057 92.969528,101.897903 
	C92.620644,102.289810 92.271759,102.681717 91.922874,103.073624 
	C91.017990,102.950630 90.113098,102.827637 88.608932,102.467758 
	C87.747490,102.636841 87.485336,103.042816 87.223183,103.448799 
M81.012825,160.512772 
	C76.529488,165.001465 72.046150,169.490158 67.207733,174.334351 
	C79.308640,177.606201 90.359100,180.534302 101.368134,183.610687 
	C104.295067,184.428558 106.451630,184.311905 108.796631,181.836060 
	C115.992325,174.238861 123.526169,166.962357 130.902634,159.535416 
	C131.762741,158.669434 132.460648,157.642365 133.420197,156.460251 
	C121.522156,153.245804 110.210640,150.050507 98.801529,147.253296 
	C97.031136,146.819244 94.327652,147.636459 92.896713,148.859253 
	C88.867432,152.302475 85.276543,156.258743 81.012825,160.512772 
M88.022774,130.519318 
	C85.663200,121.753708 83.303619,112.988106 80.750549,103.503677 
	C71.579666,112.723648 62.874226,121.413628 54.285393,130.217361 
	C53.521263,131.000626 52.976128,132.663406 53.239857,133.681900 
	C56.312939,145.549789 59.560955,157.372391 62.984215,170.025818 
	C70.193405,162.805496 76.422432,155.595215 83.661507,149.605713 
	C90.149055,144.238007 91.899269,138.714554 88.022774,130.519318 
z"/>
<path fill="#F4F4F4" opacity="1.000000" stroke="none" 
	d="
M149.650528,134.510742 
	C146.666840,123.109924 143.729385,111.696518 140.632584,100.326508 
	C140.299194,99.102463 139.234207,97.444901 138.180695,97.146637 
	C126.274246,93.775810 114.303734,90.631256 101.525826,87.204941 
	C104.241074,97.511559 106.763153,107.089165 109.288521,116.665901 
	C109.627029,117.949585 110.193947,119.213173 110.290543,120.513145 
	C110.604370,124.736473 113.097183,126.620872 116.998459,126.978706 
	C121.726494,127.412369 124.078850,129.824661 123.757477,135.090698 
	C118.760857,133.743195 113.812813,132.578125 109.002594,130.994431 
	C107.775414,130.590408 106.437004,129.011353 106.078087,127.715126 
	C102.134445,113.472778 98.298988,99.198647 94.675781,84.872047 
	C94.291168,83.351227 94.889778,80.904663 95.967155,79.796471 
	C106.180794,69.290627 116.541084,58.924332 127.034492,48.697792 
	C128.182495,47.578979 130.629883,46.812901 132.139282,47.197880 
	C146.455048,50.849197 160.719711,54.709591 174.930801,58.749966 
	C176.441025,59.179340 178.256805,60.934048 178.676285,62.426510 
	C182.628052,76.487038 186.413818,90.597763 189.927338,104.773354 
	C190.358414,106.512566 189.511230,109.296387 188.239151,110.614044 
	C178.639160,120.557961 168.511383,130.004105 159.146591,140.157410 
	C155.491058,144.120728 152.004166,143.244705 148.549744,141.619263 
	C146.532684,140.670135 145.398590,137.844482 143.867249,135.863083 
	C144.213165,135.511169 144.559082,135.159256 144.904999,134.807327 
	C146.007477,134.948318 147.109955,135.089310 148.622589,135.408722 
	C149.238678,135.228363 149.444595,134.869553 149.650528,134.510742 
M175.977509,75.646637 
	C175.273590,73.198631 174.569672,70.750626 173.679626,67.655342 
	C164.612717,76.782753 156.035751,85.363403 147.556656,94.039703 
	C146.753540,94.861496 145.937729,96.445343 146.185165,97.401878 
	C149.330063,109.559380 152.668625,121.666779 156.179382,134.603104 
	C165.373993,125.308693 174.074951,116.619179 182.585526,107.747070 
	C183.439407,106.856934 183.630539,104.736229 183.294662,103.395729 
	C181.035187,94.377892 178.550140,85.416565 175.977509,75.646637 
M143.560974,89.416298 
	C152.101685,80.889610 160.642410,72.362915 169.567261,63.452732 
	C157.259949,60.159271 145.789673,56.968136 134.231125,54.137299 
	C132.629486,53.745033 130.104370,54.608879 128.839569,55.786037 
	C123.004272,61.216961 117.460342,66.961212 111.818993,72.600159 
	C109.068283,75.349686 106.332947,78.114601 103.166870,81.298744 
	C115.552048,84.648438 127.008591,87.816063 138.520584,90.767357 
	C139.861542,91.111137 141.509293,90.258293 143.560974,89.416298 
z"/>
<path fill="#030303" opacity="1.000000" stroke="none" 
	d="
M81.262833,160.262772 
	C85.276543,156.258743 88.867432,152.302475 92.896713,148.859253 
	C94.327652,147.636459 97.031136,146.819244 98.801529,147.253296 
	C110.210640,150.050507 121.522156,153.245804 133.420197,156.460251 
	C132.460648,157.642365 131.762741,158.669434 130.902634,159.535416 
	C123.526169,166.962357 115.992325,174.238861 108.796631,181.836060 
	C106.451630,184.311905 104.295067,184.428558 101.368134,183.610687 
	C90.359100,180.534302 79.308640,177.606201 67.207733,174.334351 
	C72.046150,169.490158 76.529488,165.001465 81.262833,160.262772 
z"/>
<path fill="#050505" opacity="1.000000" stroke="none" 
	d="
M88.100395,130.920242 
	C91.899269,138.714554 90.149055,144.238007 83.661507,149.605713 
	C76.422432,155.595215 70.193405,162.805496 62.984215,170.025818 
	C59.560955,157.372391 56.312939,145.549789 53.239857,133.681900 
	C52.976128,132.663406 53.521263,131.000626 54.285393,130.217361 
	C62.874226,121.413628 71.579666,112.723648 80.750549,103.503677 
	C83.303619,112.988106 85.663200,121.753708 88.100395,130.920242 
z"/>
<path fill="#010101" opacity="1.000000" stroke="none" 
	d="
M87.532562,103.254623 
	C87.485336,103.042816 87.747490,102.636841 88.204315,102.409348 
	C88.213303,102.745384 88.027618,102.902916 87.532562,103.254623 
z"/>
<path fill="#030303" opacity="1.000000" stroke="none" 
	d="
M176.057831,76.041786 
	C178.550140,85.416565 181.035187,94.377892 183.294662,103.395729 
	C183.630539,104.736229 183.439407,106.856934 182.585526,107.747070 
	C174.074951,116.619179 165.373993,125.308693 156.179382,134.603104 
	C152.668625,121.666779 149.330063,109.559380 146.185165,97.401878 
	C145.937729,96.445343 146.753540,94.861496 147.556656,94.039703 
	C156.035751,85.363403 164.612717,76.782753 173.679626,67.655342 
	C174.569672,70.750626 175.273590,73.198631 176.057831,76.041786 
z"/>
<path fill="#040404" opacity="1.000000" stroke="none" 
	d="
M143.287888,89.688255 
	C141.509293,90.258293 139.861542,91.111137 138.520584,90.767357 
	C127.008591,87.816063 115.552048,84.648438 103.166870,81.298744 
	C106.332947,78.114601 109.068283,75.349686 111.818993,72.600159 
	C117.460342,66.961212 123.004272,61.216961 128.839569,55.786037 
	C130.104370,54.608879 132.629486,53.745033 134.231125,54.137299 
	C145.789673,56.968136 157.259949,60.159271 169.567261,63.452732 
	C160.642410,72.362915 152.101685,80.889610 143.287888,89.688255 
z"/>
<path fill="#010101" opacity="1.000000" stroke="none" 
	d="
M149.438843,134.660263 
	C149.444595,134.869553 149.238678,135.228363 148.939575,135.374329 
	C148.973297,135.044266 149.100220,134.927032 149.438843,134.660263 
z"/>
</svg>